<?xml version="1.0" encoding="UTF-8" standalone="no"?>
<!DOCTYPE svg PUBLIC "-//W3C//DTD SVG 1.1//EN"
 "http://www.w3.org/Graphics/SVG/1.1/DTD/svg11.dtd">
<!-- Generated by graphviz version 9.0.0 (20231125.0833)
 -->
<!-- Pages: 1 -->
<svg width="80pt" height="37pt"
 viewBox="0.00 0.00 80.00 36.80" xmlns="http://www.w3.org/2000/svg" xmlns:xlink="http://www.w3.org/1999/xlink">
<g id="graph0" class="graph" transform="scale(1 1) rotate(0) translate(4 32.8)">
<polygon fill="white" stroke="none" points="-4,4 -4,-32.8 76,-32.8 76,4 -4,4"/>
<!-- Entity -->
<g id="node1" class="node">
<title>Entity</title>
<g id="a_node1"><a xlink:title="An entity is a physical, digital, conceptual, or other kind of thing with some fixed aspects">
<path fill="#fffedf" stroke="#b51c1c" d="M62.4,-28.8C62.4,-28.8 9.6,-28.8 9.6,-28.8 4.8,-28.8 0,-24 0,-19.2 0,-19.2 0,-9.6 0,-9.6 0,-4.8 4.8,0 9.6,0 9.6,0 62.4,0 62.4,0 67.2,0 72,-4.8 72,-9.6 72,-9.6 72,-19.2 72,-19.2 72,-24 67.2,-28.8 62.4,-28.8"/>
<text text-anchor="middle" x="36" y="-11.1" font-family="'Source Sans Pro',-apple-system,BlinkMacSystemFont,'Segoe UI',Roboto,'Helvetica Neue',Arial,sans-serif,'Apple Color Emoji','Segoe UI Emoji','Segoe UI Symbol'" font-size="9.00">Entity</text>
</a>
</g>
</g>
</g>
</svg>
