<?xml version="1.0" encoding="UTF-8" standalone="no"?>
<!DOCTYPE svg PUBLIC "-//W3C//DTD SVG 1.1//EN"
 "http://www.w3.org/Graphics/SVG/1.1/DTD/svg11.dtd">
<!-- Generated by graphviz version 9.0.0 (20231125.0833)
 -->
<!-- Pages: 1 -->
<svg width="80pt" height="42pt"
 viewBox="0.00 0.00 80.00 42.24" xmlns="http://www.w3.org/2000/svg" xmlns:xlink="http://www.w3.org/1999/xlink">
<g id="graph0" class="graph" transform="scale(1 1) rotate(0) translate(4 38.24)">
<polygon fill="white" stroke="none" points="-4,4 -4,-38.24 76,-38.24 76,4 -4,4"/>
<!-- Imported -->
<g id="node1" class="node">
<title>Imported</title>
<g id="a_node1"><a xlink:title="Imported Collection">
<path fill="#87ceff" stroke="#b51c1c" stroke-width="3" d="M72,-31.12C72,-32.84 55.86,-34.24 36,-34.24 16.14,-34.24 0,-32.84 0,-31.12 0,-31.12 0,-3.11 0,-3.11 0,-1.4 16.14,0 36,0 55.86,0 72,-1.4 72,-3.11 72,-3.11 72,-31.12 72,-31.12"/>
<path fill="none" stroke="#b51c1c" stroke-width="3" d="M72,-31.12C72,-29.41 55.86,-28.01 36,-28.01 16.14,-28.01 0,-29.41 0,-31.12"/>
<text text-anchor="middle" x="36" y="-13.82" font-family="'Source Sans Pro',-apple-system,BlinkMacSystemFont,'Segoe UI',Roboto,'Helvetica Neue',Arial,sans-serif,'Apple Color Emoji','Segoe UI Emoji','Segoe UI Symbol'" font-size="9.00">Imported</text>
</a>
</g>
</g>
</g>
</svg>
